<svg xmlns="http://www.w3.org/2000/svg" width="3068.112" height="741.797" viewBox="0 0 3068.112 741.797">
  <g id="Group_812" data-name="Group 812" transform="translate(14059.947 2592.424)">
    <path id="Path_9220" data-name="Path 9220" d="M201.1-16.584V251.2h-65.23V83.741L77.887,251.2H21.43L-36.934,83.36V251.2h-65.231V-16.584h79.726l72.86,186.536L121.755-16.584ZM326.983,35.676q24.414,0,41.961,11.062a66.505,66.505,0,0,1,25.94,30.136V38.347h64.849V251.2H394.884V212.676a66.505,66.505,0,0,1-25.94,30.136q-17.547,11.062-41.961,11.062-26.321,0-47.111-13.161t-32.806-37.956q-12.016-24.8-12.016-57.983,0-33.569,12.016-58.173t32.806-37.765Q300.662,35.676,326.983,35.676ZM347.964,92.9q-20.981,0-33.76,13.733t-12.779,38.146q0,24.414,12.779,38.147t33.76,13.733q20.6,0,33.76-14.114t13.161-37.765q0-24.032-13.161-37.956T347.964,92.9Zm237.653-57.22q24.414,0,41.961,11.062a64.24,64.24,0,0,1,25.558,30.136V-31.08h65.231V251.2H653.136V212.676a64.24,64.24,0,0,1-25.558,30.136q-17.547,11.062-41.961,11.062-26.321,0-47.111-13.161T505.7,202.758q-12.016-24.8-12.016-57.983,0-33.569,12.016-58.173t32.806-37.765Q559.3,35.676,585.617,35.676ZM606.6,92.9q-20.981,0-33.76,13.733t-12.779,38.146q0,24.414,12.779,38.147t33.76,13.733q20.6,0,33.76-14.114t13.161-37.765q0-24.032-13.161-37.956T606.6,92.9Zm283.81,20.6L999.125,251.2H920.162L828.61,130.28V251.2H763.379v-269.7H828.61V100.144L920.924-18.492h78.2Zm347.9-75.149V251.2h-65.612V212.676a70.718,70.718,0,0,1-27.275,29.754q-18.12,11.062-42.152,11.062-36.621,0-58.173-24.414t-21.553-67.138V38.347h64.849V153.931q0,21.743,11.253,33.76t30.327,12.016q19.836,0,31.28-12.588t11.444-35.858V38.347Zm125.884-2.67q24.414,0,41.961,11.062a64.241,64.241,0,0,1,25.558,30.136V-31.08h65.231V251.2h-65.231V212.676a64.241,64.241,0,0,1-25.558,30.136q-17.547,11.062-41.961,11.062-26.321,0-47.111-13.161t-32.806-37.956q-12.016-24.8-12.016-57.983,0-33.569,12.016-58.173t32.806-37.765Q1337.866,35.676,1364.187,35.676Zm20.981,57.22q-20.981,0-33.76,13.733t-12.779,38.146q0,24.414,12.779,38.147t33.76,13.733q20.6,0,33.76-14.114t13.161-37.765q0-24.032-13.161-37.956T1385.168,92.9Zm368.5-54.55V251.2h-65.612V212.676a70.717,70.717,0,0,1-27.275,29.754q-18.119,11.062-42.152,11.062-36.621,0-58.173-24.414T1538.9,161.941V38.347h64.849V153.931q0,21.743,11.253,33.76t30.327,12.016q19.836,0,31.28-12.588t11.444-35.858V38.347Z" transform="translate(-12745.498 -2344.244)" fill="#182b52"/>
    <g id="Layer_1" transform="translate(-14059.947 -2596.424)">
      <path id="path3046" d="M483.539,778.054c-14.659-50.887-53.137-93.574-95.193-124.506-56.373-40.421-129.8-31.871-192.1-55.4-50.74-37.7-2.208-79.295,31.913-105.111,76.227-66.123,66.86-189.441,6.156-262.542-40.551-52.4-126.305-87.57-168.588-102.486C2,64.279,235.58,8.513,158.464,51.845c-26.082,11.17-52.8,32.036-4.639,44.617C210.109,113.9,343.4,222.8,358.809,330.862c11.823,57.342-4.155,122.2-25.408,175.494,138.773,43.884,198.374,142.683,264.611,270.5C597.743,776.634,566.609,778.753,483.539,778.054Z" transform="translate(-54.575 -32.5)" fill="#182b52"/>
      <path id="path3046-4" d="M305.473,779.023c14.663-50.891,53.137-93.574,95.193-124.51,56.373-40.412,129.8-31.871,192.1-55.4,50.748-37.7,2.217-79.295-31.9-105.107-76.231-66.127-66.869-189.437-6.165-262.55,40.547-52.4,126.305-87.57,168.589-102.482,63.729-63.726-169.857-119.492-92.728-76.16,26.069,11.17,52.8,32.027,4.631,44.609C578.911,114.872,445.607,223.775,430.2,331.836c-11.828,57.334,4.155,122.193,25.408,175.5-138.773,43.876-198.374,142.679-264.6,270.489C191.269,777.608,222.4,779.727,305.473,779.023Z" transform="translate(383.858 -33.37)" fill="#182b52"/>
    </g>
  </g>
</svg>
